<?xml version="1.0" encoding="UTF-8" standalone="no"?>
<!-- Created with Inkscape (http://www.inkscape.org/) -->

<svg
   width="200"
   height="200"
   viewBox="0 0 52.916665 52.916667"
   version="1.1"
   id="svg1"
   xml:space="preserve"
   inkscape:version="1.4.2 (ebf0e940, 2025-05-08)"
   sodipodi:docname="logo.svg"
   xmlns:inkscape="http://www.inkscape.org/namespaces/inkscape"
   xmlns:sodipodi="http://sodipodi.sourceforge.net/DTD/sodipodi-0.dtd"
   xmlns="http://www.w3.org/2000/svg"
   xmlns:svg="http://www.w3.org/2000/svg"><sodipodi:namedview
     id="namedview1"
     pagecolor="#ffffff"
     bordercolor="#000000"
     borderopacity="0.25"
     inkscape:showpageshadow="2"
     inkscape:pageopacity="0.0"
     inkscape:pagecheckerboard="0"
     inkscape:deskcolor="#d1d1d1"
     inkscape:document-units="mm"
     inkscape:zoom="2.8970539"
     inkscape:cx="77.319929"
     inkscape:cy="131.6855"
     inkscape:window-width="1920"
     inkscape:window-height="962"
     inkscape:window-x="0"
     inkscape:window-y="31"
     inkscape:window-maximized="1"
     inkscape:current-layer="layer1" /><defs
     id="defs1" /><g
     inkscape:label="Layer 1"
     inkscape:groupmode="layer"
     id="layer1"><path
       style="fill:#f2f2f2;stroke-width:0.345657"
       d="M 10.78739,52.215382 C 10.235482,51.91531 9.5886773,50.871196 9.2507902,49.734895 9.0345642,49.007739 8.9858264,47.469353 9.1471276,46.462913 c 0.232337,-1.449649 0.7494233,-4.535234 0.821721,-4.903397 0.044448,-0.226354 0.1281974,-0.679058 0.1861094,-1.006009 0.05791,-0.326953 0.140219,-0.779653 0.182908,-1.006007 0.04269,-0.226352 0.124997,-0.679056 0.182911,-1.006005 0.05791,-0.326955 0.14022,-0.779659 0.182912,-1.006009 0.04269,-0.22635 0.127415,-0.679054 0.18828,-1.006009 0.06086,-0.32695 0.168604,-0.820809 0.239426,-1.097462 0.07082,-0.27665 0.172328,-0.708777 0.225573,-0.960278 0.05324,-0.251504 0.129573,-0.601321 0.169617,-0.777371 0.04005,-0.17605 0.2211,-1.019724 0.402342,-1.874831 0.181242,-0.855106 0.367835,-1.69878 0.414651,-1.874833 0.549941,-2.067961 0.597144,-2.237635 0.788755,-2.83511 0.871399,-2.717179 1.43855,-4.368457 2.418672,-7.042052 0.156738,-0.427551 0.571849,-1.579887 0.922464,-2.560744 0.350617,-0.980856 0.677426,-1.85484 0.72624,-1.942183 0.226813,-0.405834 1.76e-4,-0.538738 -0.606377,-0.355591 -0.145833,0.04403 -0.4915,0.129762 -0.768155,0.190508 -0.763909,0.167738 -3.919721,1.146162 -4.435576,1.375202 -0.297947,0.132288 -2.5634648,0.908131 -3.7953915,1.299757 -1.4616333,0.464654 -1.6250256,0.550518 -2.346264,1.233009 -0.3513886,0.332512 -0.8988754,0.722489 -1.3269722,0.945211 -0.8410709,0.437574 -1.0808292,0.740636 -1.0834909,1.369571 -0.00207,0.494331 -0.059432,0.598171 -0.4022796,0.728517 -0.3270403,0.12434 -0.5534389,-0.04701 -0.6354324,-0.480937 -0.030487,-0.161318 -0.117845,-0.601969 -0.194135,-0.979223 -0.07629,-0.377251 -0.1383529,-1.138617 -0.1379207,-1.691921 0.00104,-1.202166 0.1809135,-1.693217 0.8435319,-2.301509 0.7552374,-0.69332 1.357193,-0.964029 2.90513,-1.306482 0.526813,-0.116543 1.4048797,-0.364236 2.3321059,-0.657846 0.3018039,-0.09557 0.6721966,-0.211981 0.8230968,-0.258697 0.3082194,-0.09542 2.2819857,-0.64961 3.0866147,-0.866655 0.289225,-0.07802 0.762506,-0.206802 1.051734,-0.286189 0.841331,-0.230925 5.778111,-1.501854 5.833785,-1.501854 0.07284,0 0.682398,-0.570129 0.682398,-0.638257 0,-0.195074 2.659581,-5.6220702 3.30269,-6.7392886 0.780679,-1.3562106 1.191616,-1.8939776 2.231893,-2.9207285 1.348003,-1.33047504 1.994013,-1.63573342 2.807288,-1.32652597 0.715654,0.2720906 1.091401,0.93867507 1.242889,2.20491527 0.309211,2.5845735 0.337689,3.8832099 0.14417,6.5737252 l -0.05512,0.7663198 0.53609,-0.0651 c 0.94493,-0.1147554 3.887367,-0.58109 4.925937,-0.7806916 1.025361,-0.1970631 1.619228,-0.3061361 2.515017,-0.4619218 0.27665,-0.048113 0.831328,-0.1664192 1.232611,-0.2629043 0.85326,-0.2051588 1.054753,-0.3943202 1.266295,-1.1887841 0.741179,-2.7835498 1.259052,-3.676428 2.462568,-4.2457818 0.911605,-0.43126 1.05615,-0.3421121 1.261339,0.7779442 0.198708,1.0846603 0.154346,1.7845369 -0.158435,2.4996776 -0.154002,0.3521026 -0.306747,0.8827912 -0.339437,1.1793083 l -0.05943,0.5391219 0.985501,-0.06165 c 6.006575,-0.3757532 6.41611,-0.3876089 6.794332,-0.1966919 0.175265,0.08847 0.452417,0.2877854 0.615897,0.4429228 0.280552,0.2662443 0.297227,0.318236 0.297227,0.9268258 v 0.6447586 l -0.71193,0.6862641 c -0.852309,0.821584 -2.143785,1.55509 -2.738029,1.55509 -0.497205,0 -0.92817,-0.310072 -1.242926,-0.894262 L 46.085239,10.556204 H 44.08259 c -2.445479,0 -2.2983,-0.08111 -2.450363,1.350368 -0.270263,2.544187 -0.324731,4.290685 -0.208448,6.683915 0.08967,1.845444 0.146665,2.410176 0.267193,2.647272 0.146431,0.288065 0.144758,0.316381 -0.03786,0.64019 -0.277531,0.492104 -0.835372,0.747034 -1.693304,0.773822 -0.818658,0.02554 -1.048271,-0.09057 -1.335661,-0.6755 -0.307991,-0.626871 -0.381032,-0.958948 -0.48017,-2.183094 -0.09425,-1.163677 -6.91e-4,-4.179666 0.177588,-5.715949 0.153486,-1.323771 0.26933,-3.000479 0.21354,-3.090746 -0.103471,-0.167422 -3.184852,0.147296 -5.196257,0.530719 -0.653906,0.12465 -1.435848,0.270831 -1.737652,0.324846 -0.301801,0.05401 -0.71335,0.13327 -0.914551,0.176124 -0.33406,0.07115 -1.182442,0.239068 -1.654196,0.327411 -0.105002,0.01966 -0.291586,0.114935 -0.414626,0.211722 -0.229551,0.180564 -0.26749,0.337425 -0.544597,2.251567 -0.195867,1.352947 -0.28653,1.935873 -0.366974,2.359472 -0.16463,0.866882 -0.205633,0.828273 0.808334,0.761219 0.490428,-0.03242 1.165411,-0.08363 1.499962,-0.113765 0.881769,-0.07942 1.687991,0.195079 2.163474,0.736625 0.298344,0.339794 1.073971,1.888886 1.353906,2.704039 0.142252,0.414226 0.172566,0.76933 0.171757,2.012014 -10e-4,1.534598 -0.02174,1.665903 -0.433531,2.743656 -0.656105,1.717202 -1.985442,2.572144 -4.41261,2.8379 -1.770759,0.193885 -2.223037,0.209461 -2.532878,0.08722 -0.452055,-0.17835 -0.878814,-0.521788 -1.043071,-0.839423 -0.194262,-0.375671 -0.19626,-1.172584 -0.0048,-1.89599 0.08676,-0.327707 0.120802,-0.622432 0.07698,-0.666265 -0.04383,-0.04384 -0.257207,-0.0024 -0.482361,0.09381 -0.624068,0.266477 -1.309247,0.416328 -1.586019,0.346864 -0.447,-0.112195 -0.692933,-0.448425 -0.689811,-0.943103 0.0039,-0.6209 0.387123,-1.961633 0.707126,-2.474035 0.149013,-0.238604 0.31441,-0.619021 0.367552,-0.845375 0.153073,-0.652027 0.409157,-1.984064 0.571419,-2.972291 0.05782,-0.352105 0.139923,-0.804809 0.182465,-1.006009 0.04254,-0.2012 0.119542,-0.674481 0.171119,-1.051734 0.05158,-0.377254 0.135936,-0.994576 0.18747,-1.371828 0.126181,-0.923681 0.145601,-1.81655 0.04178,-1.920375 -0.05228,-0.05228 -0.541632,0.01377 -1.272631,0.171731 -0.653234,0.141166 -1.628485,0.351336 -2.167228,0.467046 -0.688531,0.147881 -1.032727,0.267612 -1.158605,0.403032 -0.150378,0.161778 -1.148561,2.507816 -1.385524,3.256401 -0.03981,0.125756 -0.305492,0.887116 -0.590413,1.69192 -0.621582,1.755743 -0.65601,1.859144 -1.141938,3.42957 -0.210116,0.679054 -0.417479,1.337531 -0.460806,1.463285 -0.04332,0.125756 -0.208761,0.660762 -0.367632,1.188917 -0.158871,0.528154 -0.350006,1.145477 -0.424747,1.371827 -0.120725,0.36562 -0.436887,1.473466 -0.678592,2.377837 -0.187149,0.70025 -0.957468,4.453672 -1.191854,5.807406 -0.376372,2.173771 -0.671132,4.803609 -0.809788,7.22496 -0.05473,0.955708 -0.139317,2.169775 -0.187975,2.697929 -0.04866,0.528154 -0.08848,1.248362 -0.08851,1.600467 -3.7e-5,0.672358 -0.226983,2.959609 -0.32938,3.319642 -0.04113,0.144616 -0.0027,0.27298 0.12353,0.411551 0.456472,0.501503 0.44454,0.854686 -0.04441,1.314707 -0.274596,0.258345 -1.266039,0.763554 -1.48708,0.757772 -0.07545,-0.0021 -0.243558,-0.06142 -0.373573,-0.132115 z M 30.597924,25.67624 c 0.338551,-0.338551 -0.08783,-2.285912 -0.707889,-3.233065 -0.414703,-0.633466 -1.057315,-0.984339 -1.825691,-0.996849 -0.364906,-0.0059 -0.470881,0.03649 -0.725033,0.290272 -0.16371,0.163476 -0.437544,0.60589 -0.608517,0.983144 -0.170972,0.377253 -0.388086,0.856279 -0.482471,1.064507 -0.09439,0.208224 -0.198573,0.486019 -0.231529,0.61732 -0.05876,0.234121 -0.05085,0.238733 0.409614,0.238733 0.370245,0 0.657597,0.08992 1.35888,0.425248 0.489141,0.233885 1.074542,0.499468 1.300893,0.590179 0.537221,0.215299 1.306519,0.225735 1.511743,0.0205 z M 22.501406,11.152534 c 1.151679,-0.227136 2.105811,-0.485375 2.325708,-0.629457 0.291413,-0.190939 0.324326,-0.498737 0.325488,-3.0437039 6.91e-4,-1.8348428 -0.02119,-2.2165178 -0.130274,-2.2583807 -0.09286,-0.035635 -0.365564,0.3428759 -0.931883,1.293452 -0.440333,0.7391058 -1.228338,2.0563456 -1.751124,2.9271998 -0.527263,0.8783128 -0.928063,1.6418888 -0.900089,1.7147838 0.0633,0.164965 0.208691,0.164432 1.062174,-0.0039 z m -5.557523,29.80008 0.02447,-2.273938 1.280375,0.0031 c 1.43593,0.0035 1.904081,0.134969 2.379492,0.668533 0.444442,0.498812 0.532195,0.746766 0.539118,1.523326 0.0098,1.102222 -0.32234,1.6429 -1.272417,2.071142 -0.384057,0.173108 -0.658892,0.212174 -1.716408,0.243962 l -1.259126,0.03785 z m 2.796618,1.428703 c 0.724633,-0.407268 1.024381,-1.319544 0.706794,-2.151127 -0.276495,-0.72399 -0.934714,-1.04851 -2.126672,-1.04851 -0.588799,0 -0.749464,0.02927 -0.79374,0.144661 -0.07526,0.196095 -0.07091,3.001205 0.0049,3.19889 0.05364,0.139788 0.162531,0.151364 0.964321,0.102519 0.672422,-0.04097 0.991035,-0.104063 1.24434,-0.246429 z m 2.666467,0.618615 c -0.408631,-0.276235 -0.558761,-0.655988 -0.421439,-1.066031 0.167486,-0.500104 0.446603,-0.640521 1.407566,-0.708104 0.815012,-0.05732 0.845962,-0.06751 0.845962,-0.278592 0,-0.120507 -0.101013,-0.320118 -0.22448,-0.443582 -0.179597,-0.179594 -0.317659,-0.224481 -0.690458,-0.224481 -0.256285,0 -0.592512,0.06544 -0.747166,0.145411 -0.257459,0.133137 -0.293612,0.132992 -0.428322,-0.0017 -0.211503,-0.211503 -0.047,-0.419742 0.448656,-0.567929 0.878065,-0.262517 1.72478,-0.102467 2.057489,0.388896 0.153009,0.225973 0.183236,0.458173 0.20999,1.612942 l 0.03125,1.348965 h -0.282751 c -0.190368,0 -0.282755,-0.04483 -0.282755,-0.137183 0,-0.170382 -0.15922,-0.170382 -0.457277,0 -0.36384,0.207988 -1.108665,0.173146 -1.466265,-0.06859 z m 1.604007,-0.566192 c 0.233616,-0.22033 0.324697,-0.378019 0.303739,-0.52587 -0.02783,-0.196423 -0.07797,-0.213012 -0.717739,-0.237505 -0.591707,-0.02265 -0.716296,2.04e-4 -0.89169,0.163607 -0.262378,0.244445 -0.257373,0.412002 0.0206,0.68998 0.347379,0.347379 0.859197,0.311452 1.285085,-0.09022 z m 2.744327,0.440706 c -0.07613,-0.182193 -0.138412,-0.345782 -0.138412,-0.363532 0,-0.01773 -0.128574,-0.311091 -0.285723,-0.651879 -0.350066,-0.759136 -0.903193,-2.039694 -0.903193,-2.091003 0,-0.0207 0.136403,-0.03762 0.30312,-0.03762 0.302547,0 0.304141,0.0024 0.845959,1.269138 0.298562,0.698024 0.583995,1.283523 0.634298,1.301106 0.0503,0.01759 0.346467,-0.543242 0.65815,-1.246275 0.537283,-1.211896 0.581192,-1.279728 0.845962,-1.3069 0.153593,-0.01576 0.279264,0.0098 0.279264,0.05681 0,0.07134 -0.387362,0.986796 -0.955549,2.258239 -0.544463,1.218357 -0.489963,1.143193 -0.828887,1.143193 -0.277393,0 -0.333712,-0.041 -0.454989,-0.331264 z m 2.900456,-1.383522 0.02488,-1.714787 0.297231,-0.02865 0.297231,-0.02865 v 1.743443 1.743446 h -0.32211 -0.322112 z m 2.52145,1.590262 c -0.621921,-0.276028 -0.987557,-0.875819 -0.987557,-1.619992 0,-0.51495 0.125473,-0.851759 0.451665,-1.212407 0.476982,-0.527366 1.355236,-0.673393 2.017625,-0.335465 0.197195,0.100602 0.380753,0.182908 0.407904,0.182908 0.02717,0 0.04937,-0.39097 0.04937,-0.868823 v -0.868824 h 0.274365 0.274366 v 2.423563 2.423563 H 34.44622 c -0.157654,0 -0.234919,-0.06452 -0.276725,-0.231109 l -0.058,-0.231111 -0.394356,0.231111 c -0.436355,0.25572 -1.100367,0.301679 -1.539929,0.106585 z m 1.599651,-0.774283 c 0.245185,-0.245185 0.284505,-0.35082 0.288735,-0.775755 0.0089,-0.886456 -0.44707,-1.32278 -1.283589,-1.228491 -0.613614,0.06917 -0.952169,0.459531 -0.952169,1.097898 0,0.85265 0.432349,1.286631 1.220279,1.224889 0.346919,-0.02717 0.504425,-0.09623 0.726744,-0.318541 z m 1.528276,0.802334 c 0,-0.09538 0.126064,-0.391824 0.65899,-1.549721 0.150485,-0.326954 0.349404,-0.779658 0.442047,-1.006009 0.09264,-0.22635 0.313684,-0.740788 0.491204,-1.143188 l 0.322764,-0.731643 0.642377,-0.02685 0.642376,-0.02685 0.218986,0.484131 c 0.20561,0.454571 0.362407,0.805676 0.77778,1.741644 0.09488,0.213778 0.255645,0.57388 0.357275,0.800234 0.410002,0.913176 0.659149,1.487851 0.659149,1.520392 0,0.01891 -0.291625,0.03435 -0.648057,0.03435 h -0.648052 l -0.193195,-0.457278 -0.193191,-0.457276 h -0.930932 c -1.015431,0 -1.035299,0.0091 -1.23445,0.571595 l -0.121445,0.342958 h -0.621814 c -0.375132,0 -0.621815,-0.03828 -0.621815,-0.09647 z m 3.056684,-1.812656 c 0.07389,-0.119554 -0.370697,-1.154624 -0.495939,-1.154624 -0.125241,0 -0.569827,1.035068 -0.495936,1.154624 0.0272,0.04402 0.250371,0.08003 0.495936,0.08003 0.245565,0 0.468736,-0.03601 0.495939,-0.08003 z m 2.522082,-0.514435 v -2.423563 h 0.594459 0.594462 v 0.741425 c 0,0.669528 0.01552,0.735219 0.160046,0.677433 0.08803,-0.03519 0.389576,-0.08582 0.670112,-0.112504 0.682587,-0.06492 1.22324,0.171155 1.583734,0.691557 0.225745,0.325882 0.265516,0.472787 0.270279,0.998341 0.0069,0.771104 -0.260407,1.305376 -0.816394,1.631207 -0.422894,0.247832 -1.141032,0.296856 -1.558984,0.10643 -0.197575,-0.09002 -0.256281,-0.09002 -0.286291,0 -0.02478,0.07433 -0.239381,0.113237 -0.624582,0.113237 h -0.586841 z m 2.462654,1.176583 c 0.211819,-0.269284 0.2496,-0.816425 0.07232,-1.047328 -0.139981,-0.18232 -0.464329,-0.357894 -0.661163,-0.357894 -0.08263,0 -0.27053,0.1203 -0.417561,0.267332 -0.526046,0.526046 -0.238874,1.378863 0.46431,1.378863 0.271933,0 0.395889,-0.05511 0.542094,-0.240973 z m 2.778994,1.068622 c -0.415478,-0.253336 -0.511093,-0.491498 -0.570566,-1.421143 -0.04655,-0.727724 -0.0736,-0.826081 -0.235505,-0.856539 -0.240014,-0.04515 -0.316988,-0.176514 -0.318692,-0.543875 -10e-4,-0.252703 0.04261,-0.317328 0.268255,-0.395989 0.240027,-0.08367 0.272682,-0.140924 0.297227,-0.52111 0.02744,-0.425124 0.02925,-0.427246 0.384682,-0.456337 0.655798,-0.05368 0.786088,0.02562 0.786088,0.478462 0,0.434607 0.08394,0.511044 0.561219,0.511044 0.267311,0 0.271427,0.0073 0.244024,0.434412 -0.02775,0.432401 -0.02959,0.434627 -0.393697,0.480143 l -0.365819,0.04573 -0.02367,0.503005 c -0.02907,0.61808 0.127287,0.960278 0.438794,0.960278 0.123787,0 0.271189,0.03 0.32757,0.06669 0.155038,0.100872 0.233799,0.626677 0.115256,0.769502 -0.163658,0.197198 -1.161364,0.161464 -1.515172,-0.05427 z M 29.593274,38.828743 c -0.07257,-0.228625 0.02295,-0.451909 0.220115,-0.514481 0.343134,-0.108901 0.613497,0.167436 0.50335,0.514481 -0.07587,0.239053 -0.647594,0.239053 -0.723465,0 z m 15.241493,-6.615951 c -0.463797,-0.463796 0.732776,-2.881839 1.555261,-3.142883 0.338292,-0.10737 0.805863,0.04394 0.899874,0.291209 0.27411,0.720969 -0.04237,1.5845 -0.798112,2.177652 -0.883497,0.693427 -1.419563,0.911482 -1.657023,0.674022 z"
       id="path1" /></g></svg>
